<svg width="36" height="36" viewBox="0 0 36 36" fill="none" xmlns="http://www.w3.org/2000/svg">
<rect x="1" y="1" width="34" height="34" rx="9" stroke="white" stroke-width="2"/>
<g clip-path="url(#clip0)">
<path d="M28.9784 13.4681C28.9268 12.2991 28.7378 11.4955 28.467 10.7991C28.1877 10.0599 27.7579 9.39816 27.1948 8.84802C26.6447 8.28931 25.9786 7.85518 25.2479 7.58019C24.5476 7.3094 23.7481 7.12037 22.5792 7.06883C21.4015 7.01293 21.0276 7 18.0407 7C15.0538 7 14.6799 7.01293 13.5066 7.06447C12.3377 7.116 11.534 7.3052 10.8379 7.57583C10.0985 7.85518 9.43673 8.28495 8.88659 8.84802C8.32789 9.39816 7.89392 10.0643 7.61877 10.7949C7.34798 11.4955 7.15894 12.2948 7.1074 13.4637C7.0515 14.6414 7.03857 15.0152 7.03857 18.0021C7.03857 20.9891 7.0515 21.3629 7.10304 22.5362C7.15458 23.7052 7.34378 24.5088 7.61457 25.2052C7.89392 25.9444 8.32789 26.6061 8.88659 27.1563C9.43673 27.715 10.1029 28.1491 10.8335 28.4241C11.534 28.6949 12.3333 28.8839 13.5024 28.9355C14.6756 28.9872 15.0496 28.9999 18.0365 28.9999C21.0234 28.9999 21.3973 28.9872 22.5706 28.9355C23.7395 28.8839 24.5432 28.6949 25.2394 28.4241C26.7179 27.8525 27.8868 26.6835 28.4585 25.2052C28.7291 24.5046 28.9183 23.7052 28.9698 22.5362C29.0214 21.3629 29.0343 20.9891 29.0343 18.0021C29.0343 15.0152 29.0299 14.6414 28.9784 13.4681ZM26.9972 22.4503C26.9499 23.5247 26.7694 24.1049 26.619 24.4917C26.2493 25.4501 25.4887 26.2108 24.5303 26.5805C24.1435 26.7309 23.5591 26.9113 22.4888 26.9585C21.3285 27.0102 20.9804 27.023 18.0451 27.023C15.1097 27.023 14.7573 27.0102 13.6011 26.9585C12.5267 26.9113 11.9465 26.7309 11.5597 26.5805C11.0828 26.4042 10.6487 26.1248 10.2963 25.7595C9.93097 25.4028 9.65162 24.973 9.47534 24.4961C9.32492 24.1093 9.14445 23.5247 9.09728 22.4546C9.04557 21.2943 9.03281 20.9461 9.03281 18.0107C9.03281 15.0753 9.04557 14.723 9.09728 13.5669C9.14445 12.4925 9.32492 11.9123 9.47534 11.5255C9.65162 11.0484 9.93097 10.6144 10.3006 10.2619C10.6572 9.89659 11.087 9.61724 11.5641 9.44114C11.9509 9.29072 12.5354 9.11024 13.6055 9.0629C14.7659 9.01136 15.1141 8.99844 18.0493 8.99844C20.989 8.99844 21.337 9.01136 22.4932 9.0629C23.5676 9.11024 24.1478 9.29072 24.5346 9.44114C25.0116 9.61724 25.4457 9.89659 25.7981 10.2619C26.1634 10.6186 26.4427 11.0484 26.619 11.5255C26.7694 11.9123 26.9499 12.4967 26.9972 13.5669C27.0488 14.7273 27.0617 15.0753 27.0617 18.0107C27.0617 20.9461 27.0488 21.2899 26.9972 22.4503Z" fill="white"/>
<path d="M18.0408 12.3506C14.9207 12.3506 12.3893 14.8819 12.3893 18.0021C12.3893 21.1223 14.9207 23.6536 18.0408 23.6536C21.161 23.6536 23.6923 21.1223 23.6923 18.0021C23.6923 14.8819 21.161 12.3506 18.0408 12.3506ZM18.0408 21.6681C16.0167 21.6681 14.3748 20.0264 14.3748 18.0021C14.3748 15.9779 16.0167 14.3362 18.0408 14.3362C20.0651 14.3362 21.7068 15.9779 21.7068 18.0021C21.7068 20.0264 20.0651 21.6681 18.0408 21.6681Z" fill="white"/>
<path d="M25.2352 12.1272C25.2352 12.8558 24.6445 13.4466 23.9157 13.4466C23.1871 13.4466 22.5963 12.8558 22.5963 12.1272C22.5963 11.3984 23.1871 10.8078 23.9157 10.8078C24.6445 10.8078 25.2352 11.3984 25.2352 12.1272Z" fill="white"/>
</g>
<defs>
<clipPath id="clip0">
<rect width="22" height="22" fill="white" transform="translate(7 7)"/>
</clipPath>
</defs>
</svg>
