<svg width="36" height="36" viewBox="0 0 36 36" fill="none" xmlns="http://www.w3.org/2000/svg">
<rect x="0.75" y="0.75" width="34.5" height="34.5" rx="9.25" stroke="white" stroke-width="1.5"/>
<path d="M18.0008 7.34375C11.9252 7.34375 7.00269 12.1133 7.00269 18C7.00269 23.8867 11.9252 28.6562 18.0008 28.6562C24.0764 28.6562 28.999 23.8867 28.999 18C28.999 12.1133 24.0764 7.34375 18.0008 7.34375ZM23.4023 14.6441L21.5974 22.8855C21.4644 23.4699 21.1052 23.6117 20.604 23.3367L17.8545 21.373L16.5285 22.6105C16.3822 22.7523 16.258 22.8727 15.9742 22.8727L16.1693 20.1613L21.2648 15.7012C21.4865 15.5121 21.216 15.4047 20.9233 15.5938L14.626 19.4352L11.9119 18.6145C11.3221 18.434 11.3088 18.043 12.0361 17.768L22.6396 13.8062C23.1318 13.6344 23.562 13.9223 23.4023 14.6441Z" fill="white"/>
</svg>
